# xmcd
#
# Track frame offsets: 
#        150
#        19518
#        36458
#        50975
#        65159
#        78138
#        89587
#        104603
#        115984
#        125671
#        139558
#        156230
#
# Disc length: 2391 seconds
#
# Revision: 0
# Processed by: cddbd v1.5.2PL0 Copyright (c) Steve Scherf et al.
# Submitted via: ExactAudioCopy v1.0b1
#
DISCID=ad09550c
DTITLE=The Puny Pickers - Only Kiddin' Around
DYEAR=2002
DGENRE=Bluegrass
TTITLE0=Rocky Road Blues
TTITLE1=Grandfathers Clock
TTITLE2=Dear Old Dixie
TTITLE3=Hazel Creek
TTITLE4=Rawhide
TTITLE5=Claremonts Revenge
TTITLE6=Salt Creek
TTITLE7=Black Berry Blossom
TTITLE8=Black Water Dam
TTITLE9=Mama Don't Allow
TTITLE10=Cabin on the Hill
TTITLE11=Earl's Breakdown
EXTD=
EXTT0=
EXTT1=
EXTT2=
EXTT3=
EXTT4=
EXTT5=
EXTT6=
EXTT7=
EXTT8=
EXTT9=
EXTT10=
EXTT11=
PLAYORDER=
